<?xml version="1.0" encoding="utf-8"?>
<!-- Generator: Adobe Illustrator 25.2.3, SVG Export Plug-In . SVG Version: 6.00 Build 0)  -->
<svg version="1.1" id="Layer_1" xmlns="http://www.w3.org/2000/svg" xmlns:xlink="http://www.w3.org/1999/xlink" x="0px" y="0px"
	 viewBox="0 0 60 60" style="enable-background:new 0 0 60 60;" xml:space="preserve">
<style type="text/css">
	.st0{fill-rule:evenodd;clip-rule:evenodd;fill:#D8D8D8;fill-opacity:0;}
	.st1{fill:url(#SVGID_1_);enable-background:new    ;}
	.st2{fill:#FFFFFF;}
</style>
<g id="btc_main">
	<g id="btc_test">
		<polygon id="Path" class="st0" points="0,0 60,0 60,60 0,60 		"/>
		<g>
			
				<linearGradient id="SVGID_1_" gradientUnits="userSpaceOnUse" x1="44.0848" y1="15.8058" x2="15.915" y2="43.9756" gradientTransform="matrix(1 0 0 -1 0 59.8898)">
				<stop  offset="0" style="stop-color:#377F94"/>
				<stop  offset="1" style="stop-color:#34ADC4"/>
			</linearGradient>
			<path class="st1" d="M39.2,47.7c-2.8,1.4-5.9,2.3-9.2,2.3c-2.5,0-4.8-0.4-7-1.3c0-0.1,0-0.2,0-0.3c0-0.6,0.2-1.2,0.6-1.9
				c0.4-0.7,0.9-1.4,1.7-2.2c1.9,0.3,4.6,0.4,8.1,0.5c2.4,0.1,4,0.3,4.8,0.6c0.8,0.3,1.2,0.9,1.2,1.7C39.3,47.3,39.3,47.5,39.2,47.7
				z M30.1,36.3c1.2,0,2.1-0.4,2.9-1.3c0.8-0.9,1.1-2.3,1.1-4.2c0-2.5-0.5-4.4-1.6-5.8c-0.8-1-1.8-1.5-3-1.5c-1.1,0-2.1,0.5-2.9,1.4
				c-0.8,0.9-1.2,2.3-1.2,4.2c0,2.5,0.5,4.4,1.6,5.7C27.8,35.8,28.9,36.3,30.1,36.3z M30,10.1C19,10.1,10.1,19,10.1,30
				c0,7.7,4.3,14.3,10.7,17.7c0.2-0.3,0.5-0.7,0.8-1c0.1-0.1,0.9-1,2.4-2.5c-0.8-0.5-1.4-0.9-1.7-1.3c-0.3-0.4-0.5-0.8-0.5-1.3
				c0-0.5,0.2-1.2,0.7-1.9c0.4-0.7,1.5-1.8,3.1-3.1c-1.3-0.6-2.3-1.5-3-2.7c-0.7-1.1-1-2.4-1-3.8c0-2.1,0.8-3.9,2.4-5.5
				c1.6-1.5,3.6-2.3,6.1-2.3c2,0,3.7,0.5,5.1,1.4c1.3-1.3,2.2-2.3,2.9-3.2c0.8-1.2,1.3-2.3,1.3-3.3c0-0.8-0.2-1.4-0.7-1.9
				c-0.5-0.5-1-0.7-1.7-0.7c-0.6,0-1.1,0.2-1.6,0.5c-0.5,0.3-0.8,0.8-1,1.5h-0.3c0.1-1.1,0.5-1.9,1.1-2.5c0.6-0.6,1.4-0.9,2.3-0.9
				c1,0,1.8,0.3,2.4,0.9c0.6,0.6,1,1.4,1,2.2c0,0.6-0.1,1.2-0.4,1.8c-0.4,1-1.1,2-2.1,3c-1.4,1.6-2.3,2.5-2.7,2.9l0,0h3.1
				c0.6,0,1.1,0,1.3-0.1c0.3,0,0.5-0.1,0.7-0.3c0.2-0.1,0.4-0.3,0.5-0.6h0.3l-1.1,3.1h-3.2c0.7,1.1,1.1,2.4,1.1,4
				c0,2-0.8,3.7-2.3,5.1c-1.5,1.4-3.6,2.1-6.1,2.1c-1.1,0-2.1-0.2-3.2-0.5c-0.7,0.6-1.1,1.1-1.4,1.5c-0.2,0.4-0.4,0.8-0.4,1.1
				c0,0.3,0.1,0.5,0.4,0.8c0.3,0.2,0.8,0.4,1.5,0.5c0.4,0.1,1.5,0.1,3.3,0.2c3.2,0.1,5.3,0.2,6.2,0.4c1.4,0.2,2.6,0.7,3.5,1.6
				c0.9,0.9,1.3,1.9,1.3,3.2c0,0.1,0,0.2,0,0.3c5.4-3.6,8.9-9.7,8.9-16.6C49.9,19,41,10.1,30,10.1z"/>
			<path class="st2" d="M41.4,23.1h-0.3c-0.2,0.3-0.3,0.5-0.5,0.6c-0.2,0.1-0.4,0.2-0.7,0.3c-0.3,0-0.7,0.1-1.3,0.1h-3.1l0,0
				c0.4-0.3,1.3-1.3,2.7-2.9c1-1.1,1.7-2.1,2.1-3c0.3-0.6,0.4-1.2,0.4-1.8c0-0.8-0.3-1.6-1-2.2c-0.6-0.6-1.5-0.9-2.4-0.9
				c-0.9,0-1.7,0.3-2.3,0.9c-0.6,0.6-1,1.4-1.1,2.5h0.3c0.2-0.7,0.6-1.2,1-1.5c0.5-0.3,1-0.5,1.6-0.5c0.6,0,1.2,0.2,1.7,0.7
				c0.5,0.5,0.7,1.1,0.7,1.9c0,1-0.4,2.1-1.3,3.3c-0.6,0.9-1.6,2-2.9,3.2c-1.5-0.9-3.2-1.4-5.1-1.4c-2.5,0-4.5,0.8-6.1,2.3
				c-1.6,1.5-2.4,3.3-2.4,5.5c0,1.4,0.3,2.7,1,3.8c0.7,1.1,1.7,2,3,2.7c-1.6,1.3-2.6,2.4-3.1,3.1c-0.4,0.7-0.7,1.4-0.7,1.9
				c0,0.5,0.2,0.9,0.5,1.3c0.3,0.4,0.9,0.8,1.7,1.3c-1.5,1.5-2.3,2.4-2.4,2.5c-0.3,0.4-0.6,0.7-0.8,1c0.7,0.4,1.5,0.7,2.2,1
				c0-0.1,0-0.2,0-0.3c0-0.6,0.2-1.2,0.6-1.9c0.4-0.7,0.9-1.4,1.7-2.2c1.9,0.3,4.6,0.4,8.1,0.5c2.4,0.1,4,0.3,4.8,0.6
				c0.8,0.3,1.2,0.9,1.2,1.7c0,0.2,0,0.3,0,0.5c0.6-0.3,1.2-0.7,1.7-1c0-0.1,0-0.2,0-0.3c0-1.3-0.4-2.3-1.3-3.2
				c-0.9-0.9-2-1.4-3.5-1.6c-0.9-0.2-3-0.3-6.2-0.4c-1.7-0.1-2.8-0.1-3.3-0.2c-0.7-0.1-1.2-0.3-1.5-0.5c-0.3-0.2-0.4-0.5-0.4-0.8
				c0-0.3,0.1-0.7,0.4-1.1c0.2-0.4,0.7-1,1.4-1.5c1.1,0.3,2.2,0.5,3.2,0.5c2.6,0,4.6-0.7,6.1-2.1c1.5-1.4,2.3-3.1,2.3-5.1
				c0-1.6-0.4-2.9-1.1-4h3.2L41.4,23.1z M33,35c-0.8,0.9-1.7,1.3-2.9,1.3c-1.2,0-2.3-0.5-3.1-1.5c-1.1-1.3-1.6-3.2-1.6-5.7
				c0-1.9,0.4-3.3,1.2-4.2c0.8-0.9,1.7-1.4,2.9-1.4c1.2,0,2.3,0.5,3,1.5c1.1,1.4,1.6,3.3,1.6,5.8C34.1,32.7,33.8,34.1,33,35z"/>
		</g>
	</g>
</g>
</svg>
