<?xml version="1.0" encoding="utf-8"?>
<!-- Generator: Adobe Illustrator 25.2.3, SVG Export Plug-In . SVG Version: 6.00 Build 0)  -->
<svg version="1.1" id="Layer_1" xmlns="http://www.w3.org/2000/svg" xmlns:xlink="http://www.w3.org/1999/xlink" x="0px" y="0px"
	 viewBox="0 0 60 60" style="enable-background:new 0 0 60 60;" xml:space="preserve">
<style type="text/css">
	.st0{fill-rule:evenodd;clip-rule:evenodd;fill:#D8D8D8;fill-opacity:0;}
	.st1{fill:#5D6368;}
	.st2{fill:#FFFFFF;}
</style>
<g id="lbtc_main">
	<g>
		<polygon id="Path_2_" class="st0" points="0,0 60,0 60,60 0,60 		"/>
		<g>
			<g>
				<path class="st1" d="M29.1,39.8c1.1,0,2-0.4,2.7-1.2s1.1-2.1,1.1-3.9c0-2.3-0.5-4.1-1.5-5.4c-0.7-1-1.7-1.4-2.8-1.4
					c-1.1,0-2,0.4-2.7,1.3c-0.7,0.9-1.1,2.2-1.1,3.9c0,2.3,0.5,4.1,1.5,5.3C27,39.3,28,39.8,29.1,39.8z"/>
				<path class="st1" d="M36.6,48.4c-0.8-0.3-2.3-0.5-4.5-0.6c-3.3-0.1-5.8-0.3-7.5-0.5c-0.7,0.7-1.2,1.4-1.6,2.1
					c-0.1,0.2-0.2,0.3-0.2,0.4c1.9,0.8,4,1.3,6.1,1.4l0,0.1c3,0.3,6.1-0.3,8.8-1.5C37.6,49.1,37.3,48.7,36.6,48.4z"/>
				<path class="st1" d="M46.7,26.8c-1.6-3.8-3.9-7.2-6.8-10c-3-3.2-6.5-6-9.3-9.4c-0.6-0.7-0.9-0.2-1.3,0.2
					c-2.2,2.6-4.8,4.9-7.3,7.3c-2.9,2.6-5.4,5.7-7.4,9.1c-2.6,4.8-3.5,9.9-1.9,15.1c1.3,4.3,4.5,8,8.5,10.1c0.3-0.4,1-1,1.9-2
					c-0.8-0.5-1.3-0.9-1.6-1.2c-0.3-0.4-0.5-0.8-0.5-1.2c0-0.5,0.2-1.1,0.6-1.8c0.4-0.7,1.4-1.7,2.9-2.9c-1.2-0.6-2.2-1.4-2.8-2.5
					c-0.7-1.1-1-2.3-1-3.5c0-2,0.7-3.7,2.2-5.1s3.4-2.1,5.7-2.1c1.8,0,3.4,0.4,4.8,1.3c1.2-1.2,2.1-2.2,2.7-3
					c0.8-1.1,1.2-2.1,1.2-3.1c0-0.7-0.2-1.3-0.7-1.7c-0.4-0.5-1-0.7-1.6-0.7c-0.5,0-1,0.2-1.5,0.5c-0.4,0.3-0.8,0.8-1,1.4h-0.3
					c0.1-1,0.5-1.8,1.1-2.3c0.6-0.5,1.3-0.8,2.1-0.8c0.9,0,1.7,0.3,2.3,0.9c0.6,0.6,0.9,1.3,0.9,2.1c0,0.6-0.1,1.1-0.4,1.7
					c-0.4,0.9-1.1,1.8-2,2.8c-1.3,1.5-2.2,2.4-2.5,2.7l0,0H37c0.6,0,1,0,1.2-0.1s0.5-0.1,0.6-0.3c0.2-0.1,0.4-0.3,0.5-0.6h0.3
					l-1,2.9h-3c0.7,1,1,2.2,1,3.7c0,1.9-0.7,3.5-2.1,4.8c-1.4,1.3-3.3,2-5.7,2c-1,0-2-0.1-3-0.4c-0.6,0.5-1.1,1-1.3,1.4
					s-0.3,0.8-0.3,1c0,0.2,0.1,0.5,0.4,0.7c0.2,0.2,0.7,0.4,1.4,0.5c0.4,0.1,1.4,0.1,3.1,0.2c3,0.1,4.9,0.2,5.8,0.3
					c1.4,0.2,2.4,0.7,3.2,1.5c0.7,0.8,1.1,1.7,1.2,2.7C47.4,44.1,49.9,35.1,46.7,26.8z"/>
			</g>
			<path class="st2" d="M34.9,44.6C34,44.5,32,44.4,29,44.3c-1.6,0-2.6-0.1-3.1-0.2c-0.7-0.1-1.2-0.3-1.4-0.5
				c-0.2-0.2-0.4-0.5-0.4-0.7c0-0.3,0.1-0.6,0.3-1s0.7-0.9,1.3-1.4c1,0.3,2,0.4,3,0.4c2.4,0,4.3-0.7,5.7-2c1.4-1.3,2.1-2.9,2.1-4.8
				c0-1.5-0.3-2.7-1-3.7h3l1-2.9h-0.3c-0.1,0.2-0.3,0.4-0.5,0.6c-0.2,0.1-0.4,0.2-0.6,0.3s-0.7,0.1-1.2,0.1h-2.9l0,0
				c0.4-0.3,1.2-1.2,2.5-2.7c0.9-1,1.6-1.9,2-2.8c0.3-0.6,0.4-1.1,0.4-1.7c0-0.8-0.3-1.5-0.9-2.1c-0.6-0.6-1.4-0.9-2.3-0.9
				c-0.9,0-1.6,0.3-2.1,0.8c-0.6,0.5-0.9,1.3-1.1,2.3H33c0.2-0.6,0.5-1.1,1-1.4c0.4-0.3,0.9-0.5,1.5-0.5c0.6,0,1.1,0.2,1.6,0.7
				c0.4,0.5,0.7,1,0.7,1.7c0,0.9-0.4,2-1.2,3.1c-0.6,0.8-1.5,1.8-2.7,3c-1.4-0.9-3-1.3-4.8-1.3c-2.3,0-4.2,0.7-5.7,2.1S21,32,21,34
				c0,1.3,0.3,2.5,1,3.5c0.7,1.1,1.6,1.9,2.8,2.5c-1.5,1.3-2.4,2.2-2.9,2.9c-0.4,0.7-0.6,1.3-0.6,1.8c0,0.5,0.2,0.9,0.5,1.2
				c0.3,0.4,0.8,0.8,1.6,1.2c-1,1-1.6,1.7-1.9,2c0.4,0.2,0.9,0.4,1.4,0.6c0.1-0.1,0.1-0.3,0.2-0.4c0.4-0.6,0.9-1.3,1.6-2.1
				c1.8,0.3,4.3,0.4,7.5,0.5c2.2,0.1,3.7,0.2,4.5,0.6c0.7,0.3,1,0.7,1.1,1.4c0.2-0.1,0.4-0.2,0.6-0.3c0.4-0.2,0.7-0.4,1-0.6
				c-0.1-1.1-0.4-2-1.2-2.7C37.3,45.3,36.2,44.8,34.9,44.6z M25.9,29.1c0.7-0.9,1.6-1.3,2.7-1.3c1.2,0,2.1,0.5,2.8,1.4
				c1,1.3,1.5,3.1,1.5,5.4c0,1.8-0.4,3.1-1.1,3.9s-1.6,1.2-2.7,1.2c-1.2,0-2.1-0.5-2.9-1.4c-1-1.3-1.5-3-1.5-5.3
				C24.8,31.3,25.1,30,25.9,29.1z"/>
		</g>
	</g>
</g>
</svg>
